<svg xmlns="http://www.w3.org/2000/svg" viewBox="0 0 200 200" width="200" height="200">
  <rect width="200" height="200" fill="#e74c3c"/>
  <circle cx="100" cy="100" r="90" fill="#f1948a" opacity="0.2"/>
  <!-- Luci Silhouette -->
  <!-- Tail -->
  <path d="M 120 150 Q 160 160 150 120 Q 140 90 160 80" stroke="#111111" stroke-width="8" fill="none" stroke-linecap="round"/>
  <path d="M 160 80 L 154 75 L 165 72 L 163 84 Z" fill="#111111"/>
  <!-- Body/Arms -->
  <path d="M 70 200 C 75 160 85 130 100 130 C 115 130 125 160 130 200 Z" fill="#111111"/>
  <!-- Head & Horns -->
  <path d="M 80 100 C 70 100 65 80 60 70 L 70 75 C 80 70 90 65 100 65 C 110 65 120 70 130 75 L 140 70 C 135 80 130 100 120 100 C 120 125 80 125 80 100 Z" fill="#111111"/>
  <!-- Snout/Face shape -->
  <path d="M 80 90 L 50 95 L 80 105 Z" fill="#111111"/>
  <!-- Eye -->
  <ellipse cx="85" cy="85" rx="14" ry="12" fill="#ffffff"/>
  <circle cx="85" cy="85" r="4" fill="#111111"/>
  <!-- Hands -->
  <path d="M 85 145 Q 70 145 75 155" stroke="#111111" stroke-width="5" fill="none" stroke-linecap="round"/>
  <path d="M 115 145 Q 130 145 125 155" stroke="#111111" stroke-width="5" fill="none" stroke-linecap="round"/>
</svg>
