<svg xmlns="http://www.w3.org/2000/svg" viewBox="0 0 200 200" width="200" height="200">
  <rect width="200" height="200" fill="#9b59b6"/>
  <circle cx="100" cy="100" r="95" fill="#d7bde2" opacity="0.3"/>
  
  <!-- Red Jumpsuit -->
  <path d="M 55 200 L 68 150 L 132 150 L 145 200 Z" fill="#c0392b"/>
  <line x1="100" y1="150" x2="100" y2="200" stroke="#f1c40f" stroke-width="3"/>
  <rect x="98" y="160" width="4" height="10" fill="#ffffff" stroke="#7f8c8d" stroke-width="0.5"/>

  <!-- Neck -->
  <rect x="91" y="125" width="18" height="25" fill="#fbe5d6"/>
  
  <!-- Head -->
  <path d="M 74 110 C 68 82 75 66 100 66 C 125 66 132 82 126 110 C 122 126 114 130 100 130 C 86 130 78 126 74 110 Z" fill="#fbe5d6"/>
  
  <!-- Eyes (Young, brown) -->
  <ellipse cx="86" cy="95" rx="7.5" ry="4.5" fill="#111"/>
  <ellipse cx="114" cy="95" rx="7.5" ry="4.5" fill="#111"/>
  <circle cx="86" cy="95" r="4.5" fill="#5c3a21"/>
  <circle cx="114" cy="95" r="4.5" fill="#5c3a21"/>
  <circle cx="85" cy="93" r="1.5" fill="#fff"/>
  <circle cx="113" cy="93" r="1.5" fill="#fff"/>

  <!-- Nose -->
  <path d="M 100 90 L 98 108 L 102 108" fill="none" stroke="#d5b290" stroke-width="1.5"/>

  <!-- Smile -->
  <path d="M 88 118 Q 100 126 112 118" stroke="#7e2a1f" stroke-width="2" fill="none" stroke-linecap="round"/>

  <!-- Curly Brown Hair -->
  <!-- Curly blobs -->
  <circle cx="72" cy="65" r="10" fill="#6f4e37"/>
  <circle cx="86" cy="58" r="11" fill="#6f4e37"/>
  <circle cx="100" cy="54" r="12" fill="#6f4e37"/>
  <circle cx="114" cy="58" r="11" fill="#6f4e37"/>
  <circle cx="128" cy="65" r="10" fill="#6f4e37"/>
  <circle cx="68" cy="78" r="9" fill="#6f4e37"/>
  <circle cx="132" cy="78" r="9" fill="#6f4e37"/>
  <circle cx="70" cy="90" r="8" fill="#6f4e37"/>
  <circle cx="130" cy="90" r="8" fill="#6f4e37"/>
</svg>
